<svg version="1.2" baseProfile="tiny-ps" xmlns="http://www.w3.org/2000/svg" viewBox="0 0 38 38" width="38" height="38">
	<title>MyGov Activities</title>
	<style>
		tspan { white-space:pre }
		.shp0 { fill: #ffffff } 
	</style>
	<g >
		<g >
			<g >
				<g >
					<g >
						<path class="shp0" d="M2.81 15.69L3.68 15.69C3.68 15.74 3.67 15.78 3.67 15.83L3.67 32.49L3.08 32.49C2.49 32.49 2.01 32.96 2.01 33.55C2.01 34.13 2.49 34.61 3.08 34.61L4.74 34.61L8.82 34.61L12.89 34.61L16.96 34.61L21.04 34.61L25.11 34.61L29.19 34.61L33.26 34.61L34.92 34.61C35.51 34.61 35.99 34.13 35.99 33.55C35.99 32.96 35.51 32.49 34.92 32.49L34.33 32.49L34.33 15.83C34.33 15.78 34.33 15.74 34.32 15.69L35.19 15.69C36 15.69 36.71 15.18 36.96 14.42C37.22 13.66 36.95 12.84 36.3 12.36L19.64 0.18C19.26 -0.09 18.74 -0.09 18.36 0.18L1.7 12.36C1.05 12.84 0.79 13.66 1.04 14.42C1.29 15.18 2.01 15.69 2.81 15.69ZM19.96 32.49L18.04 32.49L18.04 15.83C18.04 15.78 18.03 15.74 18.03 15.69L19.97 15.69C19.97 15.74 19.97 15.78 19.97 15.83L19.97 32.49L19.96 32.49ZM11.82 32.49L9.89 32.49L9.89 15.83C9.89 15.78 9.89 15.74 9.88 15.69L11.83 15.69C11.82 15.74 11.82 15.78 11.82 15.83L11.82 32.49ZM5.82 32.49L5.82 16.89L7.74 16.89L7.74 32.49L5.82 32.49ZM13.96 32.49L13.96 16.89L15.89 16.89L15.89 32.49L13.96 32.49ZM22.11 32.49L22.11 16.89L24.04 16.89L24.04 32.49L22.11 32.49ZM30.26 32.49L30.26 16.89L32.19 16.89L32.19 32.49L30.26 32.49ZM28.11 15.83L28.11 32.49L26.19 32.49L26.19 15.83C26.19 15.78 26.18 15.74 26.18 15.69L28.12 15.69C28.12 15.74 28.11 15.78 28.11 15.83ZM19 2.36L34.35 13.57L3.65 13.57L19 2.36ZM36.94 35.88L1.07 35.88C0.47 35.88 -0.01 36.35 -0.01 36.94C-0.01 37.53 0.47 38 1.07 38L36.94 38C37.53 38 38.01 37.53 38.01 36.94C38.01 36.35 37.53 35.88 36.94 35.88Z" />
					</g>
				</g>
			</g>
		</g>
	</g>
</svg>