<svg version="1.2" baseProfile="tiny-ps" xmlns="http://www.w3.org/2000/svg" viewBox="0 0 45 35" width="45" height="35">
	<title>Engagement Models/dissemination</title>
	<style>
		tspan { white-space:pre }
		.shp0 { fill: #20409a } 
	</style>
	<g >
		<g >
			<g >
				<g >
					<path class="shp0" d="M34.5 30.98L9.5 30.98C8.39 30.98 7.5 31.87 7.5 32.98C7.5 34.08 8.39 34.98 9.5 34.98L34.5 34.98C35.61 34.98 36.5 34.08 36.5 32.98C36.5 31.87 35.61 30.98 34.5 30.98ZM7 15.98L7 20.98C7 21.81 7.67 22.48 8.5 22.48C9.33 22.48 10 21.81 10 20.98L10 15.98C10 15.15 9.33 14.48 8.5 14.48C7.67 14.48 7 15.15 7 15.98ZM12 13.98L12 20.98C12 21.81 12.67 22.48 13.5 22.48C14.33 22.48 15 21.81 15 20.98L15 13.98C15 13.15 14.33 12.48 13.5 12.48C12.67 12.48 12 13.15 12 13.98ZM17 11.98L17 20.98C17 21.81 17.67 22.48 18.5 22.48C19.33 22.48 20 21.81 20 20.98L20 11.98C20 11.15 19.33 10.48 18.5 10.48C17.67 10.48 17 11.15 17 11.98ZM42 -0.01L2 -0.01C0.89 -0.01 0 0.88 0 1.99L0 26.98C0 28.08 0.89 28.98 2 28.98L40.17 28.98C40.12 28.93 40.05 28.88 40 28.83L37.23 26.06C35.63 26.96 33.82 27.44 31.97 27.44C29.44 27.44 27.05 26.57 25.13 24.98L4 24.98L4 3.98L40 3.98L40 9.62C41.74 11.58 42.7 14.07 42.7 16.71C42.7 18.57 42.22 20.37 41.32 21.97L44 24.65L44 1.98C44 0.88 43.11 -0.01 42 -0.01ZM39.67 23.15C39.47 22.95 39.2 22.87 38.94 22.89L38.52 22.47C39.93 20.88 40.7 18.86 40.7 16.72C40.7 14.39 39.79 12.19 38.15 10.55C36.5 8.89 34.3 7.99 31.97 7.99C29.64 7.99 27.45 8.89 25.8 10.55C24.15 12.19 23.24 14.39 23.24 16.72C23.24 19.05 24.15 21.24 25.8 22.89C27.45 24.54 29.64 25.44 31.97 25.44C34.12 25.44 36.13 24.67 37.73 23.26L38.15 23.68C38.12 23.94 38.2 24.21 38.41 24.41L41.41 27.42C41.59 27.59 41.82 27.68 42.05 27.68C42.28 27.68 42.51 27.59 42.68 27.42C43.03 27.07 43.03 26.5 42.68 26.15L39.67 23.15ZM36.88 21.62C35.57 22.93 33.82 23.65 31.97 23.65C30.12 23.65 28.37 22.93 27.06 21.62C25.75 20.31 25.03 18.57 25.03 16.72C25.03 14.86 25.75 13.12 27.06 11.81C28.37 10.5 30.12 9.78 31.97 9.78C33.82 9.78 35.57 10.5 36.88 11.81C38.19 13.12 38.91 14.86 38.91 16.72C38.91 18.57 38.19 20.31 36.88 21.62Z" />
				</g>
			</g>
		</g>
	</g>
</svg>