<svg version="1.2" baseProfile="tiny-ps" xmlns="http://www.w3.org/2000/svg" viewBox="0 0 45 36" width="45" height="36">
	<title>archives</title>
	<style>
		tspan { white-space:pre }
		.shp0 { fill: #db3300 } 
	</style>
	<g >
		<g >
			<path class="shp0" d="M34.5 31.88L9.5 31.88C8.39 31.88 7.5 32.78 7.5 33.88C7.5 34.98 8.39 35.88 9.5 35.88L34.5 35.88C35.61 35.88 36.5 34.98 36.5 33.88C36.5 32.78 35.61 31.88 34.5 31.88ZM7 16.88L7 21.88C7 22.71 7.67 23.38 8.5 23.38C9.33 23.38 10 22.71 10 21.88L10 16.88C10 16.06 9.33 15.39 8.5 15.39C7.67 15.39 7 16.06 7 16.88ZM12 14.89L12 21.88C12 22.71 12.67 23.38 13.5 23.38C14.33 23.38 15 22.71 15 21.88L15 14.89C15 14.06 14.33 13.39 13.5 13.39C12.67 13.39 12 14.06 12 14.89ZM17 12.89L17 21.88C17 22.71 17.67 23.38 18.5 23.38C19.33 23.38 20 22.71 20 21.88L20 12.89C20 12.06 19.33 11.39 18.5 11.39C17.67 11.39 17 12.06 17 12.89ZM42 0.89L2 0.89C0.89 0.89 0 1.79 0 2.89L0 27.88C0 28.99 0.89 29.88 2 29.88L40.17 29.88C40.12 29.83 40.05 29.79 40 29.74L37.23 26.97C35.63 27.87 33.82 28.35 31.97 28.35C29.44 28.35 27.05 27.48 25.13 25.88L4 25.88L4 4.89L40 4.89L40 10.52C41.74 12.49 42.7 14.97 42.7 17.62C42.7 19.47 42.22 21.28 41.32 22.87L44 25.55L44 2.89C44 1.79 43.11 0.89 42 0.89ZM39.67 24.05C39.47 23.85 39.2 23.77 38.94 23.8L38.52 23.38C39.93 21.78 40.7 19.76 40.7 17.62C40.7 15.29 39.79 13.1 38.15 11.45C36.5 9.8 34.3 8.89 31.97 8.89C29.64 8.89 27.45 9.8 25.8 11.45C24.15 13.1 23.24 15.29 23.24 17.62C23.24 19.95 24.15 22.14 25.8 23.79C27.45 25.44 29.64 26.35 31.97 26.35C34.12 26.35 36.13 25.57 37.73 24.17L38.15 24.59C38.12 24.85 38.2 25.12 38.41 25.32L41.41 28.32C41.59 28.5 41.82 28.59 42.05 28.59C42.28 28.59 42.51 28.5 42.68 28.32C43.03 27.97 43.03 27.41 42.68 27.06L39.67 24.05ZM36.88 22.52C35.57 23.84 33.82 24.56 31.97 24.56C30.12 24.56 28.37 23.84 27.06 22.53C25.75 21.22 25.03 19.47 25.03 17.62C25.03 15.77 25.75 14.03 27.06 12.72C28.37 11.4 30.12 10.68 31.97 10.68C33.82 10.68 35.57 11.4 36.88 12.72C38.19 14.03 38.91 15.77 38.91 17.62C38.91 19.47 38.19 21.22 36.88 22.52Z" />
		</g>
	</g>
</svg>