<svg version="1.2" baseProfile="tiny-ps" xmlns="http://www.w3.org/2000/svg" viewBox="0 0 44 44" width="44" height="44">
	<title>Engagement Models/dissemination</title>
	<style>
		tspan { white-space:pre }
		.shp0 { fill: #000000 } 
	</style>
	<g >
		<g >
			<g >
				<g >
					<path class="shp0" d="M12.56 5.74C12.54 5.69 12.53 5.63 12.51 5.58C12.49 5.53 12.46 5.48 12.43 5.43C12.4 5.38 12.36 5.34 12.32 5.3C12.28 5.26 12.24 5.23 12.19 5.19C12.14 5.16 12.09 5.14 12.04 5.12C11.99 5.09 11.94 5.08 11.88 5.07C11.77 5.04 11.66 5.04 11.54 5.07C11.49 5.08 11.44 5.09 11.38 5.12C11.33 5.14 11.28 5.16 11.24 5.19C11.19 5.23 11.14 5.26 11.1 5.3C11.07 5.34 11.03 5.38 11 5.43C10.97 5.48 10.94 5.53 10.92 5.58C10.9 5.63 10.88 5.69 10.87 5.74C10.86 5.8 10.85 5.85 10.85 5.91C10.85 6.13 10.94 6.36 11.1 6.52C11.14 6.56 11.19 6.59 11.24 6.62C11.28 6.65 11.33 6.68 11.38 6.7C11.44 6.72 11.49 6.74 11.54 6.75C11.6 6.76 11.66 6.77 11.71 6.77C11.77 6.77 11.83 6.76 11.88 6.75C11.94 6.74 11.99 6.72 12.04 6.7C12.09 6.68 12.14 6.65 12.19 6.62C12.24 6.59 12.28 6.56 12.32 6.52C12.48 6.36 12.57 6.13 12.57 5.91C12.57 5.85 12.57 5.8 12.56 5.74ZM12.56 37.89C12.54 37.84 12.53 37.78 12.51 37.73C12.48 37.68 12.46 37.63 12.43 37.58C12.4 37.54 12.36 37.49 12.32 37.45C12.28 37.41 12.24 37.38 12.19 37.35C12.14 37.32 12.09 37.29 12.04 37.27C11.99 37.25 11.94 37.23 11.88 37.22C11.77 37.2 11.66 37.2 11.54 37.22C11.49 37.23 11.44 37.25 11.38 37.27C11.33 37.29 11.28 37.32 11.24 37.35C11.19 37.38 11.14 37.41 11.1 37.45C11.07 37.49 11.03 37.54 11 37.58C10.97 37.63 10.94 37.68 10.92 37.73C10.9 37.78 10.88 37.84 10.87 37.89C10.86 37.95 10.85 38.01 10.85 38.06C10.85 38.12 10.86 38.17 10.87 38.23C10.88 38.28 10.9 38.34 10.92 38.39C10.94 38.44 10.97 38.49 11 38.54C11.03 38.59 11.07 38.63 11.1 38.67C11.14 38.71 11.19 38.74 11.24 38.78C11.28 38.81 11.33 38.83 11.38 38.85C11.44 38.88 11.49 38.89 11.54 38.9C11.6 38.91 11.66 38.92 11.71 38.92C11.77 38.92 11.83 38.91 11.88 38.9C11.94 38.89 11.99 38.88 12.04 38.85C12.09 38.83 12.14 38.81 12.19 38.78C12.24 38.74 12.28 38.71 12.32 38.67C12.36 38.63 12.4 38.59 12.43 38.54C12.46 38.49 12.48 38.44 12.51 38.39C12.53 38.34 12.54 38.28 12.56 38.23C12.57 38.17 12.57 38.12 12.57 38.06C12.57 38.01 12.57 37.95 12.56 37.89ZM38.82 27.55C38.53 27.27 38.11 27.22 37.78 27.41C37.64 26.88 37.36 26.37 36.96 25.94C36.81 25.79 36.72 25.61 36.67 25.4L35.96 21.98L36.67 18.57C36.72 18.36 36.81 18.18 36.96 18.03C37.36 17.6 37.64 17.09 37.78 16.56C37.91 16.63 38.06 16.67 38.21 16.67C38.43 16.67 38.65 16.59 38.82 16.42L43.75 11.49C44.08 11.16 44.08 10.61 43.75 10.28L33.7 0.24C33.37 -0.1 32.82 -0.1 32.49 0.24L27.55 5.17C27.23 5.49 27.22 6.01 27.52 6.35C26.64 6.48 25.83 6.89 25.2 7.52L21.98 10.73L18.77 7.52C18.12 6.87 17.3 6.48 16.45 6.35C16.75 6.01 16.74 5.49 16.41 5.17L11.48 0.24C11.15 -0.1 10.6 -0.1 10.27 0.24L0.22 10.28C-0.12 10.61 -0.12 11.16 0.22 11.49L5.15 16.42C5.32 16.59 5.54 16.67 5.76 16.67C5.91 16.67 6.06 16.63 6.19 16.56C6.33 17.09 6.6 17.6 7.01 18.03C7.15 18.18 7.25 18.36 7.29 18.57L8.01 21.98L7.29 25.4C7.25 25.61 7.15 25.79 7.01 25.94C6.6 26.37 6.33 26.88 6.19 27.41C5.86 27.22 5.43 27.27 5.15 27.55L0.22 32.48C-0.12 32.81 -0.12 33.36 0.22 33.69L10.27 43.73C10.43 43.9 10.65 43.98 10.87 43.98C11.09 43.98 11.31 43.9 11.48 43.73L16.41 38.8C16.74 38.48 16.75 37.96 16.45 37.62C17.3 37.49 18.12 37.1 18.77 36.45L21.98 33.24L25.19 36.45C25.85 37.1 26.67 37.49 27.52 37.62C27.22 37.96 27.23 38.48 27.55 38.8L32.49 43.73C32.65 43.9 32.87 43.98 33.09 43.98C33.31 43.98 33.53 43.9 33.7 43.73L43.75 33.69C44.08 33.36 44.08 32.81 43.75 32.48L38.82 27.55ZM41.09 10.05C41.31 10.28 41.44 10.57 41.44 10.88C41.44 11.2 41.31 11.49 41.09 11.71C40.63 12.17 39.89 12.17 39.43 11.71C38.97 11.26 38.97 10.51 39.43 10.05L39.43 10.05C39.89 9.6 40.63 9.6 41.09 10.05ZM33.09 2.06L39.22 8.18C38.85 8.33 38.51 8.54 38.21 8.84C38.21 8.84 38.21 8.84 38.21 8.84C37.89 9.16 37.66 9.55 37.52 9.95L35.13 7.57C34.8 7.23 34.25 7.23 33.92 7.57C33.58 7.91 33.58 8.45 33.92 8.79L38.97 13.83L38.21 14.6L36.9 13.3L31.13 7.52L29.38 5.78L33.09 2.06ZM26.41 8.74C26.88 8.27 27.5 8.01 28.16 8.01C28.82 8.01 29.44 8.27 29.91 8.74L35.69 14.51C36.32 15.15 36.34 16.19 35.71 16.84C35.35 17.22 35.1 17.7 34.99 18.22L33.67 24.51C33.53 25.01 33.01 25.3 32.5 25.17C31.99 25.03 31.69 24.5 31.83 23.99C31.83 23.97 31.83 23.96 31.84 23.94L32.12 22.57C32.2 22.2 32.03 21.82 31.69 21.64C31.36 21.46 30.94 21.52 30.67 21.79L24.46 28.01C24.45 28.02 24.44 28.03 24.43 28.03L24.31 28.16C24.31 28.16 24.31 28.16 24.31 28.16C23.95 28.49 23.4 28.47 23.06 28.12C22.75 27.78 22.75 27.25 23.07 26.9C23.08 26.88 23.09 26.87 23.11 26.86L26.63 23.34C26.63 23.34 26.63 23.34 26.63 23.34L27.76 22.21C28.09 21.88 28.09 21.33 27.76 21C27.42 20.66 26.88 20.66 26.54 21L25.38 22.16C25.37 22.16 25.37 22.17 25.37 22.17L21.2 26.31C20.88 26.57 20.4 26.57 20.08 26.3C20.06 26.28 20.04 26.26 20.02 26.24C19.69 25.92 19.67 25.39 19.97 25.04C19.98 25.04 19.98 25.03 19.99 25.03L25.28 19.74C25.61 19.4 25.61 18.86 25.28 18.53C24.94 18.19 24.4 18.19 24.06 18.53L18.78 23.8C18.77 23.81 18.76 23.81 18.75 23.82C18.48 24.06 18.09 24.1 17.78 23.94C17.7 23.9 17.62 23.85 17.55 23.78C17.55 23.78 17.55 23.77 17.55 23.77C17.53 23.75 17.5 23.73 17.49 23.7C17.48 23.7 17.48 23.69 17.47 23.69C17.46 23.66 17.44 23.64 17.43 23.62C17.42 23.62 17.42 23.61 17.42 23.61C17.39 23.55 17.36 23.49 17.34 23.43C17.34 23.42 17.34 23.42 17.34 23.42C17.32 23.38 17.31 23.33 17.3 23.29C17.3 23.29 17.3 23.28 17.3 23.28C17.3 23.26 17.3 23.24 17.3 23.23C17.29 23.2 17.29 23.18 17.29 23.15C17.29 23.1 17.3 23.05 17.3 23C17.31 23 17.31 22.99 17.31 22.99C17.32 22.94 17.33 22.9 17.34 22.86C17.34 22.86 17.34 22.85 17.34 22.85C17.35 22.83 17.36 22.81 17.37 22.79C17.37 22.78 17.37 22.78 17.37 22.78C17.38 22.76 17.39 22.74 17.4 22.72C17.41 22.71 17.41 22.7 17.42 22.7C17.43 22.68 17.44 22.67 17.44 22.66C17.45 22.65 17.45 22.65 17.45 22.65C17.46 22.63 17.48 22.61 17.49 22.6L17.49 22.59C17.5 22.59 17.5 22.59 17.5 22.59L19.28 20.79C19.28 20.79 19.29 20.78 19.29 20.78C19.29 20.78 19.29 20.78 19.3 20.77L22.8 17.28C23.13 16.94 23.13 16.4 22.8 16.06C22.46 15.73 21.92 15.73 21.58 16.06L18.09 19.55C17.78 19.8 17.34 19.81 17.02 19.58C17.02 19.58 17.02 19.58 17.02 19.58C16.97 19.55 16.93 19.51 16.89 19.47C16.87 19.44 16.84 19.42 16.82 19.39C16.82 19.38 16.81 19.37 16.81 19.37C16.79 19.35 16.78 19.33 16.77 19.31C16.76 19.3 16.76 19.29 16.75 19.28C16.74 19.25 16.73 19.23 16.72 19.2C16.71 19.19 16.71 19.18 16.71 19.16C16.7 19.14 16.69 19.12 16.68 19.1C16.68 19.08 16.68 19.07 16.68 19.06C16.67 19.04 16.67 19.01 16.66 18.99C16.66 18.98 16.66 18.97 16.66 18.96C16.66 18.93 16.66 18.89 16.66 18.86C16.66 18.86 16.66 18.85 16.66 18.85C16.66 18.82 16.66 18.78 16.67 18.75C16.67 18.74 16.67 18.74 16.67 18.74C16.67 18.7 16.68 18.66 16.69 18.63C16.69 18.63 16.69 18.63 16.69 18.63C16.71 18.56 16.74 18.49 16.77 18.43C16.77 18.42 16.77 18.42 16.78 18.42C16.79 18.39 16.81 18.37 16.82 18.34C16.83 18.34 16.83 18.33 16.84 18.32C16.86 18.3 16.88 18.27 16.9 18.24C16.91 18.23 16.92 18.22 16.93 18.21L26.41 8.74ZM4.54 11.71C4.08 12.17 3.33 12.17 2.88 11.72L2.87 11.71C2.65 11.49 2.53 11.2 2.53 10.88C2.53 10.57 2.65 10.28 2.88 10.05C3.1 9.82 3.41 9.71 3.71 9.71C4.01 9.71 4.31 9.82 4.54 10.05C5 10.51 5 11.26 4.54 11.71ZM7.06 13.3L5.76 14.6L5 13.83L10.05 8.78C10.39 8.45 10.39 7.91 10.05 7.57C9.71 7.23 9.17 7.23 8.83 7.57L6.45 9.95C6.31 9.55 6.08 9.16 5.75 8.84C5.75 8.84 5.75 8.84 5.75 8.84C5.46 8.54 5.11 8.33 4.75 8.18L10.87 2.06L14.59 5.78L12.84 7.52L7.06 13.3ZM8.28 14.51L14.06 8.74C15.02 7.78 16.59 7.77 17.56 8.74L20.77 11.95L15.72 16.99C15.68 17.03 15.65 17.06 15.62 17.1C15.6 17.12 15.59 17.13 15.57 17.15C15.56 17.17 15.55 17.18 15.54 17.19C15.41 17.35 15.3 17.51 15.22 17.69C15.21 17.7 15.21 17.7 15.21 17.71C15.2 17.73 15.19 17.74 15.18 17.76C15.16 17.82 15.13 17.88 15.11 17.94L13.84 19.2C13.79 18.92 13.68 18.65 13.54 18.39C13.18 17.77 12.6 17.33 11.91 17.14C11.86 17.13 11.8 17.12 11.75 17.11C11.74 17.1 11.72 17.1 11.7 17.1C11.67 17.09 11.63 17.09 11.59 17.08C11.57 17.08 11.56 17.08 11.54 17.07C11.5 17.07 11.45 17.06 11.41 17.06C11.4 17.06 11.39 17.06 11.38 17.06C11.33 17.06 11.28 17.05 11.22 17.05C11.22 17.05 11.22 17.05 11.22 17.05C11.21 17.05 11.2 17.05 11.19 17.05C11.15 17.05 11.11 17.06 11.07 17.06C11.05 17.06 11.04 17.06 11.03 17.06C10.99 17.06 10.95 17.07 10.91 17.07C10.89 17.07 10.88 17.07 10.87 17.08C10.77 17.09 10.67 17.11 10.57 17.13C10.56 17.14 10.55 17.14 10.54 17.14C10.5 17.15 10.46 17.16 10.42 17.18C10.41 17.18 10.4 17.18 10.38 17.19C10.34 17.2 10.3 17.21 10.26 17.23C10.26 17.23 10.25 17.23 10.24 17.24C10.19 17.26 10.14 17.28 10.1 17.3C10.09 17.3 10.09 17.3 10.09 17.3C10.05 17.32 10 17.34 9.96 17.37C9.95 17.37 9.94 17.38 9.93 17.38C9.89 17.4 9.86 17.42 9.83 17.44C9.82 17.45 9.81 17.46 9.79 17.46C9.76 17.49 9.72 17.51 9.69 17.53C9.68 17.54 9.67 17.54 9.67 17.55C9.63 17.58 9.59 17.61 9.55 17.64C9.54 17.64 9.53 17.65 9.52 17.66C9.49 17.68 9.46 17.71 9.43 17.73C9.42 17.74 9.41 17.76 9.4 17.77C9.37 17.79 9.34 17.82 9.32 17.84C9.31 17.85 9.3 17.86 9.29 17.87C9.25 17.91 9.22 17.94 9.19 17.97C9.19 17.98 9.19 17.98 9.18 17.98C9.15 18.02 9.12 18.06 9.09 18.1C9.08 18.11 9.07 18.12 9.06 18.14C9.04 18.16 9.02 18.19 9 18.22C8.99 18.23 8.99 18.24 8.98 18.25L8.98 18.22C8.87 17.7 8.62 17.22 8.25 16.84C7.63 16.19 7.64 15.15 8.28 14.51ZM2.87 33.92C2.65 33.69 2.53 33.4 2.53 33.09C2.53 32.77 2.65 32.48 2.88 32.26C3.1 32.03 3.41 31.91 3.71 31.91C4.01 31.91 4.31 32.03 4.54 32.26C5 32.71 5 33.46 4.54 33.92C4.08 34.37 3.33 34.37 2.87 33.92ZM10.87 41.91L4.75 35.79C5.11 35.64 5.46 35.43 5.75 35.13C5.75 35.13 5.75 35.13 5.75 35.13C6.08 34.81 6.31 34.42 6.45 34.02L8.83 36.4C9 36.57 9.22 36.65 9.44 36.65C9.66 36.65 9.88 36.57 10.05 36.4C10.39 36.06 10.39 35.52 10.05 35.18L5 30.14L5.76 29.37L7.06 30.67L12.84 36.45L14.59 38.19L10.87 41.91ZM17.56 35.23C17.09 35.7 16.47 35.95 15.81 35.95C15.14 35.95 14.52 35.7 14.06 35.23L8.28 29.46C7.64 28.82 7.63 27.78 8.25 27.13C8.62 26.75 8.87 26.27 8.98 25.75L10.29 19.46C10.44 18.96 10.96 18.67 11.46 18.8C11.5 18.81 11.53 18.82 11.56 18.83C11.56 18.84 11.57 18.84 11.57 18.84C11.6 18.85 11.62 18.86 11.64 18.87C11.65 18.87 11.65 18.87 11.65 18.87C11.99 19.05 12.19 19.4 12.17 19.78C12.17 19.79 12.17 19.79 12.17 19.79C12.17 19.81 12.17 19.84 12.16 19.87C12.16 19.87 12.16 19.88 12.16 19.88C12.16 19.92 12.15 19.95 12.14 19.98C12.14 20 12.13 20.01 12.13 20.03L11.84 21.4C11.77 21.77 11.94 22.15 12.28 22.33C12.61 22.51 13.03 22.45 13.29 22.18L15.29 20.19C15.34 20.28 15.4 20.36 15.47 20.45C15.47 20.45 15.48 20.46 15.48 20.47C15.5 20.49 15.52 20.51 15.53 20.53C15.55 20.55 15.56 20.56 15.57 20.57C15.57 20.58 15.58 20.58 15.58 20.59C15.57 20.66 15.57 20.74 15.57 20.82C15.57 21.23 15.67 21.63 15.85 21.98C15.84 21.99 15.84 22 15.84 22C15.82 22.04 15.81 22.07 15.79 22.1C15.79 22.11 15.79 22.12 15.78 22.13C15.76 22.17 15.75 22.21 15.73 22.25C15.73 22.26 15.72 22.27 15.72 22.28C15.71 22.32 15.7 22.35 15.69 22.38C15.68 22.4 15.68 22.41 15.68 22.43C15.67 22.46 15.66 22.49 15.65 22.52C15.65 22.54 15.64 22.55 15.64 22.56C15.63 22.61 15.62 22.65 15.61 22.69C15.61 22.7 15.61 22.71 15.61 22.72C15.6 22.75 15.6 22.79 15.59 22.83C15.59 22.84 15.59 22.86 15.59 22.87C15.58 22.91 15.58 22.94 15.58 22.97C15.58 22.99 15.58 23 15.58 23.01C15.57 23.06 15.57 23.11 15.57 23.15C15.57 23.15 15.57 23.15 15.57 23.15L15.57 23.15L15.57 23.15C15.57 23.15 15.57 23.15 15.57 23.16C15.57 23.19 15.57 23.23 15.57 23.27C15.58 23.3 15.58 23.33 15.58 23.37C15.58 23.37 15.58 23.38 15.58 23.38C15.58 23.39 15.57 23.39 15.57 23.4C15.56 23.41 15.54 23.43 15.53 23.44C15.52 23.46 15.5 23.48 15.49 23.49C15.48 23.51 15.47 23.52 15.45 23.54C15.44 23.56 15.43 23.57 15.42 23.59C15.4 23.61 15.39 23.62 15.38 23.64C15.37 23.66 15.36 23.67 15.35 23.69C15.34 23.71 15.33 23.72 15.32 23.74C15.31 23.76 15.3 23.78 15.28 23.8C15.28 23.81 15.27 23.83 15.26 23.85C15.25 23.86 15.24 23.88 15.23 23.9C15.22 23.92 15.21 23.94 15.2 23.95C15.19 23.97 15.18 23.99 15.17 24.01C15.17 24.03 15.16 24.04 15.15 24.06C15.14 24.08 15.14 24.1 15.13 24.12C15.12 24.14 15.11 24.16 15.11 24.17C15.1 24.19 15.09 24.21 15.09 24.23C15.08 24.25 15.07 24.27 15.07 24.29C15.06 24.31 15.06 24.32 15.05 24.34C15.04 24.36 15.04 24.38 15.03 24.4C15.03 24.42 15.02 24.44 15.02 24.46C15.01 24.48 15.01 24.5 15 24.52C15 24.53 15 24.55 14.99 24.57C14.99 24.59 14.98 24.61 14.98 24.63C14.98 24.65 14.97 24.67 14.97 24.69C14.97 24.71 14.97 24.73 14.96 24.75C14.96 24.77 14.96 24.79 14.96 24.8C14.95 24.83 14.95 24.85 14.95 24.87C14.95 24.89 14.95 24.9 14.95 24.92C14.94 24.94 14.94 24.97 14.94 24.99C14.94 25 14.94 25.02 14.94 25.04C14.94 25.06 14.94 25.08 14.94 25.11C14.94 25.12 14.94 25.14 14.94 25.16C14.94 25.18 14.94 25.2 14.94 25.23C14.94 25.24 14.94 25.26 14.95 25.27C14.95 25.3 14.95 25.32 14.95 25.35C14.95 25.36 14.95 25.37 14.96 25.39C14.96 25.41 14.96 25.44 14.96 25.46C14.97 25.48 14.97 25.49 14.97 25.5C14.98 25.53 14.98 25.56 14.98 25.58C14.99 25.59 14.99 25.61 14.99 25.62C15 25.65 15 25.67 15.01 25.7C15.01 25.71 15.01 25.72 15.02 25.73C15.02 25.76 15.03 25.79 15.04 25.81C15.04 25.83 15.04 25.84 15.05 25.85C15.06 25.87 15.06 25.9 15.07 25.93C15.08 25.94 15.08 25.95 15.08 25.96C15.09 25.99 15.1 26.02 15.11 26.04C15.12 26.05 15.12 26.06 15.12 26.07C15.13 26.1 15.15 26.13 15.16 26.15C15.16 26.16 15.17 26.17 15.17 26.18C15.18 26.21 15.19 26.24 15.21 26.26C15.21 26.27 15.22 26.28 15.22 26.29C15.23 26.31 15.25 26.34 15.26 26.37C15.27 26.38 15.27 26.39 15.28 26.39C15.29 26.42 15.31 26.45 15.33 26.48C15.33 26.48 15.33 26.49 15.34 26.5C15.35 26.52 15.37 26.55 15.39 26.58C15.4 26.59 15.4 26.59 15.41 26.6C15.42 26.63 15.44 26.66 15.46 26.68C15.47 26.69 15.48 26.7 15.49 26.71C15.5 26.73 15.52 26.76 15.54 26.78C15.56 26.81 15.59 26.84 15.62 26.87C15.65 26.91 15.68 26.94 15.72 26.98L20.77 32.02L17.56 35.23ZM26.41 35.23L22.59 31.42C22.59 31.41 22.59 31.41 22.59 31.41L16.93 25.76C16.92 25.75 16.91 25.74 16.9 25.72C16.87 25.7 16.85 25.66 16.83 25.63C16.82 25.63 16.82 25.62 16.81 25.61C16.79 25.58 16.77 25.55 16.76 25.52C16.76 25.52 16.76 25.51 16.75 25.51C16.74 25.48 16.72 25.44 16.71 25.41C16.71 25.4 16.71 25.39 16.7 25.38C16.69 25.35 16.68 25.32 16.68 25.29C16.68 25.29 16.68 25.28 16.67 25.28C16.68 25.28 16.68 25.28 16.69 25.29C16.73 25.32 16.78 25.35 16.83 25.38C16.83 25.38 16.84 25.38 16.85 25.39C16.89 25.41 16.93 25.44 16.98 25.46C16.99 25.47 16.99 25.47 17 25.47C17.05 25.5 17.1 25.52 17.15 25.54C17.16 25.55 17.17 25.55 17.18 25.55C17.22 25.57 17.27 25.59 17.32 25.61C17.32 25.61 17.33 25.61 17.34 25.61C17.39 25.63 17.44 25.65 17.5 25.66C17.51 25.66 17.52 25.67 17.53 25.67C17.58 25.68 17.63 25.69 17.68 25.7C17.68 25.7 17.68 25.71 17.69 25.71C17.74 25.72 17.8 25.72 17.85 25.73C17.86 25.73 17.87 25.73 17.88 25.73C17.94 25.74 17.99 25.75 18.05 25.75C18.08 26.37 18.33 26.99 18.8 27.46C18.8 27.46 18.8 27.46 18.8 27.46C18.81 27.46 18.81 27.47 18.82 27.47C19.3 27.95 19.94 28.2 20.58 28.22C20.79 28.22 20.99 28.2 21.19 28.16C21.3 28.58 21.5 28.97 21.81 29.3C21.84 29.33 21.88 29.36 21.91 29.39C21.92 29.4 21.93 29.41 21.94 29.42C21.96 29.44 21.98 29.46 22.01 29.48C22.02 29.49 22.03 29.5 22.05 29.52C22.07 29.53 22.09 29.55 22.11 29.57C22.12 29.58 22.14 29.59 22.15 29.6C22.18 29.61 22.2 29.63 22.22 29.64C22.23 29.66 22.25 29.67 22.26 29.68C22.28 29.69 22.3 29.7 22.33 29.72C22.34 29.73 22.36 29.74 22.38 29.75C22.4 29.76 22.42 29.77 22.44 29.78C22.46 29.79 22.47 29.8 22.49 29.81C22.51 29.82 22.53 29.83 22.55 29.84C22.57 29.85 22.59 29.86 22.61 29.87C22.63 29.88 22.65 29.89 22.67 29.9C22.69 29.9 22.71 29.91 22.72 29.92C22.75 29.93 22.77 29.94 22.79 29.94C22.81 29.95 22.83 29.96 22.84 29.96C22.87 29.97 22.89 29.98 22.91 29.99C22.93 29.99 22.95 30 22.97 30C22.99 30.01 23.01 30.02 23.03 30.02C23.05 30.03 23.07 30.03 23.09 30.04C23.11 30.04 23.13 30.05 23.16 30.05C23.18 30.06 23.19 30.06 23.21 30.06C23.24 30.07 23.26 30.07 23.28 30.08C23.3 30.08 23.32 30.08 23.34 30.08C23.36 30.09 23.39 30.09 23.41 30.09C23.43 30.1 23.45 30.1 23.46 30.1C23.49 30.1 23.51 30.1 23.54 30.1C23.56 30.11 23.57 30.11 23.59 30.11C23.62 30.11 23.64 30.11 23.67 30.11C23.68 30.11 23.69 30.11 23.71 30.11C23.71 30.11 23.72 30.11 23.72 30.11C23.74 30.11 23.76 30.11 23.78 30.11C23.8 30.11 23.82 30.11 23.84 30.11C23.86 30.11 23.88 30.1 23.9 30.1C23.92 30.1 23.94 30.1 23.96 30.1C23.98 30.1 24 30.09 24.02 30.09C24.04 30.09 24.06 30.09 24.08 30.08C24.1 30.08 24.12 30.08 24.14 30.07C24.16 30.07 24.18 30.07 24.2 30.06C24.22 30.06 24.24 30.06 24.26 30.05C24.28 30.05 24.3 30.04 24.32 30.04C24.34 30.03 24.36 30.03 24.38 30.02C24.39 30.02 24.41 30.01 24.43 30.01C24.45 30 24.47 30 24.49 29.99C24.51 29.98 24.53 29.98 24.55 29.97C24.57 29.96 24.59 29.96 24.61 29.95C24.63 29.94 24.65 29.94 24.67 29.93C24.68 29.92 24.7 29.91 24.72 29.91C24.74 29.9 24.76 29.89 24.78 29.88C24.8 29.87 24.81 29.86 24.83 29.86C24.85 29.85 24.87 29.84 24.89 29.83C24.91 29.82 24.93 29.81 24.94 29.8C24.96 29.79 24.98 29.78 25 29.77C25.02 29.76 25.03 29.75 25.05 29.74C25.07 29.73 25.09 29.71 25.11 29.7C25.12 29.69 25.14 29.68 25.16 29.67C25.18 29.66 25.2 29.64 25.22 29.63C25.23 29.62 25.24 29.61 25.26 29.6C25.28 29.58 25.3 29.57 25.32 29.55C25.34 29.54 25.35 29.53 25.36 29.52C25.39 29.49 25.42 29.47 25.46 29.44C25.47 29.42 25.49 29.41 25.51 29.39L25.76 29.14C25.77 29.13 25.78 29.12 25.79 29.11L30.12 24.77C30.15 24.88 30.18 25 30.22 25.11C30.22 25.11 30.22 25.12 30.22 25.12C30.24 25.17 30.26 25.22 30.28 25.27C30.29 25.28 30.29 25.3 30.3 25.31C30.32 25.35 30.34 25.4 30.36 25.44C30.37 25.46 30.38 25.47 30.38 25.49C30.4 25.52 30.41 25.55 30.43 25.58C30.69 26.03 31.07 26.38 31.52 26.61C31.52 26.62 31.52 26.62 31.52 26.62C31.63 26.67 31.74 26.72 31.85 26.76C31.87 26.76 31.88 26.77 31.89 26.77C31.95 26.79 32 26.81 32.06 26.82C32.12 26.84 32.19 26.86 32.25 26.87C32.26 26.87 32.28 26.87 32.29 26.88C32.35 26.89 32.41 26.9 32.48 26.9C32.49 26.9 32.5 26.9 32.51 26.9C32.56 26.91 32.62 26.91 32.68 26.91C32.69 26.91 32.7 26.92 32.71 26.92C32.77 26.92 32.83 26.92 32.89 26.91C32.91 26.91 32.92 26.91 32.93 26.91C32.99 26.91 33.05 26.9 33.11 26.89C33.11 26.89 33.12 26.89 33.12 26.89C33.18 26.88 33.24 26.87 33.3 26.86C33.31 26.86 33.33 26.85 33.34 26.85C33.4 26.84 33.46 26.82 33.51 26.81C33.52 26.8 33.53 26.8 33.54 26.8C33.59 26.78 33.64 26.76 33.69 26.74C33.7 26.74 33.72 26.74 33.73 26.73C33.78 26.71 33.84 26.69 33.89 26.66C33.9 26.66 33.91 26.65 33.92 26.64C33.98 26.62 34.03 26.59 34.07 26.57C34.08 26.56 34.08 26.56 34.09 26.56C34.14 26.53 34.19 26.5 34.24 26.46C34.25 26.46 34.26 26.45 34.28 26.44C34.32 26.41 34.37 26.37 34.42 26.33C34.43 26.33 34.43 26.32 34.44 26.32C34.48 26.28 34.52 26.25 34.56 26.21C34.57 26.2 34.58 26.19 34.59 26.19C34.63 26.15 34.68 26.1 34.72 26.06C34.72 26.05 34.73 26.04 34.74 26.03C34.78 25.99 34.82 25.95 34.85 25.9C34.86 25.9 34.86 25.89 34.86 25.89C34.9 25.84 34.94 25.79 34.97 25.74C34.97 25.73 34.98 25.73 34.98 25.72L34.99 25.75C35.1 26.27 35.35 26.75 35.71 27.13C36.34 27.78 36.32 28.82 35.69 29.46L29.91 35.23C28.95 36.19 27.38 36.19 26.41 35.23ZM33.09 41.91L29.38 38.19L31.13 36.45L36.9 30.67L38.21 29.37L38.97 30.14L33.92 35.18C33.58 35.52 33.58 36.06 33.92 36.4C34.08 36.57 34.31 36.65 34.53 36.65C34.75 36.65 34.97 36.57 35.13 36.4L37.52 34.02C37.66 34.42 37.89 34.81 38.21 35.13C38.21 35.13 38.21 35.13 38.21 35.13C38.51 35.43 38.85 35.64 39.22 35.79L33.09 41.91ZM41.09 33.92C40.63 34.37 39.89 34.37 39.43 33.92L39.43 33.92C38.97 33.46 38.97 32.71 39.43 32.26C39.89 31.8 40.63 31.8 41.09 32.25L41.09 32.26C41.31 32.48 41.44 32.77 41.44 33.09C41.44 33.4 41.31 33.69 41.09 33.92ZM33.1 37.89C33.09 37.84 33.07 37.78 33.05 37.73C33.03 37.68 33 37.63 32.97 37.58C32.94 37.54 32.9 37.49 32.86 37.45C32.66 37.25 32.37 37.16 32.09 37.22C32.03 37.23 31.98 37.25 31.93 37.27C31.87 37.29 31.82 37.32 31.78 37.35C31.73 37.38 31.69 37.41 31.65 37.45C31.61 37.49 31.57 37.54 31.54 37.58C31.51 37.63 31.48 37.68 31.46 37.73C31.44 37.78 31.42 37.84 31.41 37.89C31.4 37.95 31.39 38.01 31.39 38.06C31.39 38.12 31.4 38.17 31.41 38.23C31.42 38.28 31.44 38.34 31.46 38.39C31.48 38.44 31.51 38.49 31.54 38.54C31.57 38.59 31.61 38.63 31.65 38.67C31.69 38.71 31.73 38.74 31.78 38.78C31.82 38.81 31.87 38.83 31.93 38.85C31.98 38.88 32.03 38.89 32.09 38.9C32.14 38.91 32.2 38.92 32.25 38.92C32.48 38.92 32.7 38.83 32.86 38.67C32.9 38.63 32.94 38.59 32.97 38.54C33 38.49 33.03 38.44 33.05 38.39C33.07 38.34 33.09 38.28 33.1 38.23C33.11 38.17 33.11 38.12 33.11 38.06C33.11 38.01 33.11 37.95 33.1 37.89ZM33.1 5.74C33.09 5.69 33.07 5.63 33.05 5.58C33.03 5.53 33 5.48 32.97 5.43C32.94 5.38 32.9 5.34 32.86 5.3C32.82 5.26 32.78 5.23 32.73 5.19C32.69 5.16 32.64 5.14 32.58 5.12C32.53 5.09 32.48 5.08 32.42 5.07C32.31 5.04 32.2 5.04 32.09 5.07C32.03 5.08 31.98 5.09 31.93 5.12C31.87 5.14 31.82 5.16 31.78 5.19C31.73 5.23 31.69 5.26 31.65 5.3C31.61 5.34 31.57 5.38 31.54 5.43C31.51 5.48 31.48 5.53 31.46 5.58C31.44 5.63 31.42 5.69 31.41 5.74C31.4 5.8 31.39 5.85 31.39 5.91C31.39 6.13 31.49 6.36 31.65 6.52C31.69 6.56 31.73 6.59 31.78 6.62C31.82 6.65 31.87 6.68 31.93 6.7C31.98 6.72 32.03 6.74 32.09 6.75C32.14 6.76 32.2 6.77 32.25 6.77C32.31 6.77 32.37 6.76 32.42 6.75C32.48 6.74 32.53 6.72 32.58 6.7C32.64 6.68 32.69 6.65 32.73 6.62C32.78 6.59 32.82 6.56 32.86 6.52C33.02 6.36 33.11 6.13 33.11 5.91C33.11 5.85 33.11 5.8 33.1 5.74Z" />
				</g>
			</g>
		</g>
	</g>
</svg>